<svg xmlns="http://www.w3.org/2000/svg" version="1.1" width="36" height="14" xmlns:xlink="http://www.w3.org/1999/xlink">
<g transform="rotate(1.8476102659945959 2 4)"><line x1="2" y1="4" x2="3" y2="4.587785252292473" stroke="#ff0000" stroke-width="2" stroke-opacity="0.6"></line><line x1="3" y1="4.587785252292473" x2="4" y2="4.951056516295154" stroke="#ff0000" stroke-width="2" stroke-opacity="0.6"></line><line x1="4" y1="4.951056516295154" x2="5" y2="4.951056516295154" stroke="#ff0000" stroke-width="2" stroke-opacity="0.6"></line><line x1="5" y1="4.951056516295154" x2="6" y2="4.587785252292473" stroke="#ff0000" stroke-width="2" stroke-opacity="0.6"></line><line x1="6" y1="4.587785252292473" x2="7" y2="4" stroke="#ff0000" stroke-width="2" stroke-opacity="0.6"></line><line x1="7" y1="4" x2="8" y2="3.412214747707527" stroke="#ff0000" stroke-width="2" stroke-opacity="0.6"></line><line x1="8" y1="3.412214747707527" x2="9" y2="3.0489434837048464" stroke="#ff0000" stroke-width="2" stroke-opacity="0.6"></line><line x1="9" y1="3.0489434837048464" x2="10" y2="3.0489434837048464" stroke="#ff0000" stroke-width="2" stroke-opacity="0.6"></line><line x1="10" y1="3.0489434837048464" x2="11" y2="3.4122147477075266" stroke="#ff0000" stroke-width="2" stroke-opacity="0.6"></line><line x1="11" y1="3.4122147477075266" x2="12" y2="3.9999999999999996" stroke="#ff0000" stroke-width="2" stroke-opacity="0.6"></line><line x1="12" y1="3.9999999999999996" x2="13" y2="4.587785252292473" stroke="#ff0000" stroke-width="2" stroke-opacity="0.6"></line><line x1="13" y1="4.587785252292473" x2="14" y2="4.951056516295154" stroke="#ff0000" stroke-width="2" stroke-opacity="0.6"></line><line x1="14" y1="4.951056516295154" x2="15" y2="4.951056516295154" stroke="#ff0000" stroke-width="2" stroke-opacity="0.6"></line><line x1="15" y1="4.951056516295154" x2="16" y2="4.587785252292473" stroke="#ff0000" stroke-width="2" stroke-opacity="0.6"></line><line x1="16" y1="4.587785252292473" x2="17" y2="4" stroke="#ff0000" stroke-width="2" stroke-opacity="0.6"></line><line x1="17" y1="4" x2="18" y2="3.412214747707527" stroke="#ff0000" stroke-width="2" stroke-opacity="0.6"></line><line x1="18" y1="3.412214747707527" x2="19" y2="3.048943483704847" stroke="#ff0000" stroke-width="2" stroke-opacity="0.6"></line><line x1="19" y1="3.048943483704847" x2="20" y2="3.0489434837048464" stroke="#ff0000" stroke-width="2" stroke-opacity="0.6"></line><line x1="20" y1="3.0489434837048464" x2="21" y2="3.4122147477075266" stroke="#ff0000" stroke-width="2" stroke-opacity="0.6"></line><line x1="21" y1="3.4122147477075266" x2="22" y2="3.9999999999999996" stroke="#ff0000" stroke-width="2" stroke-opacity="0.6"></line><line x1="22" y1="3.9999999999999996" x2="23" y2="4.5877852522924725" stroke="#ff0000" stroke-width="2" stroke-opacity="0.6"></line><line x1="23" y1="4.5877852522924725" x2="24" y2="4.951056516295154" stroke="#ff0000" stroke-width="2" stroke-opacity="0.6"></line><line x1="24" y1="4.951056516295154" x2="25" y2="4.951056516295154" stroke="#ff0000" stroke-width="2" stroke-opacity="0.6"></line><line x1="25" y1="4.951056516295154" x2="26" y2="4.587785252292473" stroke="#ff0000" stroke-width="2" stroke-opacity="0.6"></line><line x1="26" y1="4.587785252292473" x2="27" y2="4.000000000000001" stroke="#ff0000" stroke-width="2" stroke-opacity="0.6"></line><line x1="27" y1="4.000000000000001" x2="28" y2="3.4122147477075275" stroke="#ff0000" stroke-width="2" stroke-opacity="0.6"></line><line x1="28" y1="3.4122147477075275" x2="29" y2="3.0489434837048464" stroke="#ff0000" stroke-width="2" stroke-opacity="0.6"></line><line x1="29" y1="3.0489434837048464" x2="30" y2="3.0489434837048464" stroke="#ff0000" stroke-width="2" stroke-opacity="0.6"></line><line x1="30" y1="3.0489434837048464" x2="31" y2="3.412214747707526" stroke="#ff0000" stroke-width="2" stroke-opacity="0.6"></line><line x1="31" y1="3.412214747707526" x2="32" y2="3.999999999999999" stroke="#ff0000" stroke-width="2" stroke-opacity="0.6"></line><line x1="32" y1="3.999999999999999" x2="33" y2="4.5877852522924725" stroke="#ff0000" stroke-width="2" stroke-opacity="0.6"></line><line x1="33" y1="4.5877852522924725" x2="34" y2="4.951056516295154" stroke="#ff0000" stroke-width="2" stroke-opacity="0.6"></line></g>
</svg>